<?xml version="1.0" encoding="utf-8"?>
<!-- Generator: Adobe Illustrator 27.5.0, SVG Export Plug-In . SVG Version: 6.00 Build 0)  -->
<svg version="1.1" xmlns="http://www.w3.org/2000/svg" xmlns:xlink="http://www.w3.org/1999/xlink" x="0px" y="0px"
	 viewBox="0 0 500 500" style="enable-background:new 0 0 500 500;" xml:space="preserve">
<g id="BACKGROUND">
	<rect style="fill:#7BB7FF;" width="500" height="500"/>
</g>
<g id="OBJECTS">
	<g>
		<g>
			
				<ellipse transform="matrix(0.7071 -0.7071 0.7071 0.7071 -114.4227 255.0763)" style="fill:#5EA7EF;" cx="250.693" cy="265.659" rx="159.654" ry="159.654"/>
			
				<ellipse transform="matrix(0.7071 -0.7071 0.7071 0.7071 -114.4227 255.0763)" style="fill:none;stroke:#5EA7EF;stroke-width:0.5;stroke-miterlimit:10;" cx="250.693" cy="265.659" rx="169.637" ry="169.637"/>
		</g>
		<g>
			<g>
				<path style="fill:#7BB7FF;stroke:#FFFFFF;stroke-width:0.4605;stroke-miterlimit:10;" d="M304.905,440.184H195.645
					c-8.641,0-15.645-7.005-15.645-15.645l0,0c0-8.641,7.005-15.646,15.645-15.646h109.261c8.641,0,15.645,7.005,15.645,15.646l0,0
					C320.551,433.18,313.546,440.184,304.905,440.184z"/>
				
					<line style="fill:none;stroke:#FFFFFF;stroke-width:0.4605;stroke-miterlimit:10;" x1="249.202" y1="408.893" x2="249.202" y2="381.15"/>
			</g>
			
				<text transform="matrix(1 0 0 1 199.2502 429.0614)" style="fill:#FFFFFF; font-family:'Montserrat-SemiBold'; font-size:9.6208px;">App development</text>
		</g>
		<g>
			<g>
				<g>
					<path style="fill:#FFFFFF;" d="M417.977,372.557H83.409v-196.39c0-6.842,5.547-12.389,12.389-12.389h309.789
						c6.842,0,12.389,5.547,12.389,12.389V372.557z"/>
					<rect x="83.409" y="363.609" style="fill:#DCECF4;" width="334.568" height="8.949"/>
					<path style="fill:#365C9E;" d="M412.914,367.703H88.472V177.632c0-4.97,4.029-8.999,8.999-8.999h306.444
						c4.97,0,8.999,4.029,8.999,8.999V367.703z"/>
					<path style="fill:#3D68A5;" d="M116.93,367.703H88.472V177.632c0-4.97,4.029-8.999,8.999-8.999h19.459V367.703z"/>
					<path style="fill:#26508C;" d="M412.914,186.346H88.472v-8.714c0-4.97,4.029-8.999,8.999-8.999h306.444
						c4.97,0,8.999,4.029,8.999,8.999V186.346z"/>
				</g>
				<g>
					<path style="fill:#FFFFFF;" d="M413.993,384.858H87.393c-8.299,0-15.38-6.005-16.736-14.192l-0.153-0.924h360.38l-0.153,0.924
						C429.374,378.853,422.293,384.858,413.993,384.858z"/>
					<path style="fill:#DCECF4;" d="M427.164,369.741c-2.328,6.728-8.698,11.409-16.023,11.409H84.54
						c-4.599,0-8.818-1.849-11.902-4.886c2.942,5.183,8.501,8.594,14.754,8.594h326.601c8.299,0,15.38-6.005,16.736-14.192
						l0.153-0.924H427.164z"/>
				</g>
			</g>
			<g>
				<g>
					
						<line style="fill:none;stroke:#54EAC3;stroke-width:1.0768;stroke-linecap:round;stroke-miterlimit:10;" x1="130.264" y1="201.504" x2="244.351" y2="201.504"/>
					
						<line style="fill:none;stroke:#54EAC3;stroke-width:1.0768;stroke-linecap:round;stroke-miterlimit:10;" x1="253.763" y1="201.504" x2="291.697" y2="201.504"/>
				</g>
				<g>
					
						<line style="fill:none;stroke:#69CDFF;stroke-width:1.0768;stroke-linecap:round;stroke-miterlimit:10;" x1="130.264" y1="282.708" x2="244.351" y2="282.708"/>
					
						<line style="fill:none;stroke:#69CDFF;stroke-width:1.0768;stroke-linecap:round;stroke-miterlimit:10;" x1="253.763" y1="282.708" x2="276.295" y2="282.708"/>
				</g>
				<g>
					
						<line style="fill:none;stroke:#54EAC3;stroke-width:1.0768;stroke-linecap:round;stroke-miterlimit:10;" x1="130.264" y1="306.058" x2="244.351" y2="306.058"/>
					
						<line style="fill:none;stroke:#54EAC3;stroke-width:1.0768;stroke-linecap:round;stroke-miterlimit:10;" x1="253.763" y1="306.058" x2="276.295" y2="306.058"/>
				</g>
				<g>
					
						<line style="fill:none;stroke:#69CDFF;stroke-width:1.0768;stroke-linecap:round;stroke-miterlimit:10;" x1="130.264" y1="347.568" x2="244.351" y2="347.568"/>
					
						<line style="fill:none;stroke:#69CDFF;stroke-width:1.0768;stroke-linecap:round;stroke-miterlimit:10;" x1="253.763" y1="347.568" x2="291.697" y2="347.568"/>
				</g>
				<g>
					
						<line style="fill:none;stroke:#54EAC3;stroke-width:1.0768;stroke-linecap:round;stroke-miterlimit:10;" x1="208.698" y1="354.054" x2="244.351" y2="354.054"/>
					
						<line style="fill:none;stroke:#54EAC3;stroke-width:1.0768;stroke-linecap:round;stroke-miterlimit:10;" x1="253.763" y1="354.054" x2="291.697" y2="354.054"/>
				</g>
				<g>
					<g>
						
							<line style="fill:none;stroke:#69CDFF;stroke-width:1.0768;stroke-linecap:round;stroke-miterlimit:10;" x1="155.648" y1="210.844" x2="244.351" y2="210.844"/>
						
							<line style="fill:none;stroke:#69CDFF;stroke-width:1.0768;stroke-linecap:round;stroke-miterlimit:10;" x1="253.763" y1="210.844" x2="267.738" y2="210.844"/>
					</g>
					<g>
						
							<line style="fill:none;stroke:#69CDFF;stroke-width:1.0768;stroke-linecap:round;stroke-miterlimit:10;" x1="155.648" y1="216.552" x2="244.351" y2="216.552"/>
						
							<line style="fill:none;stroke:#69CDFF;stroke-width:1.0768;stroke-linecap:round;stroke-miterlimit:10;" x1="253.763" y1="216.552" x2="278.006" y2="216.552"/>
					</g>
					<g>
						
							<line style="fill:none;stroke:#54EAC3;stroke-width:1.0768;stroke-linecap:round;stroke-miterlimit:10;" x1="155.648" y1="222.259" x2="244.351" y2="222.259"/>
						
							<line style="fill:none;stroke:#54EAC3;stroke-width:1.0768;stroke-linecap:round;stroke-miterlimit:10;" x1="253.763" y1="222.259" x2="267.738" y2="222.259"/>
					</g>
					<g>
						
							<line style="fill:none;stroke:#69CDFF;stroke-width:1.0768;stroke-linecap:round;stroke-miterlimit:10;" x1="155.648" y1="227.967" x2="244.351" y2="227.967"/>
						
							<line style="fill:none;stroke:#69CDFF;stroke-width:1.0768;stroke-linecap:round;stroke-miterlimit:10;" x1="253.763" y1="227.967" x2="278.006" y2="227.967"/>
					</g>
					<g>
						
							<line style="fill:none;stroke:#69CDFF;stroke-width:1.0768;stroke-linecap:round;stroke-miterlimit:10;" x1="155.648" y1="233.674" x2="244.351" y2="233.674"/>
						
							<line style="fill:none;stroke:#69CDFF;stroke-width:1.0768;stroke-linecap:round;stroke-miterlimit:10;" x1="253.763" y1="233.674" x2="267.738" y2="233.674"/>
					</g>
				</g>
				<g>
					
						<line style="fill:none;stroke:#69CDFF;stroke-width:1.0768;stroke-linecap:round;stroke-miterlimit:10;" x1="189.018" y1="240.679" x2="244.351" y2="240.679"/>
					
						<line style="fill:none;stroke:#69CDFF;stroke-width:1.0768;stroke-linecap:round;stroke-miterlimit:10;" x1="253.763" y1="240.679" x2="283.14" y2="240.679"/>
				</g>
				<g>
					
						<line style="fill:none;stroke:#69CDFF;stroke-width:1.0768;stroke-linecap:round;stroke-miterlimit:10;" x1="189.018" y1="247.684" x2="244.351" y2="247.684"/>
					
						<line style="fill:none;stroke:#69CDFF;stroke-width:1.0768;stroke-linecap:round;stroke-miterlimit:10;" x1="253.763" y1="247.684" x2="283.14" y2="247.684"/>
				</g>
				<g>
					
						<line style="fill:none;stroke:#69CDFF;stroke-width:1.0768;stroke-linecap:round;stroke-miterlimit:10;" x1="189.018" y1="254.689" x2="232.942" y2="254.689"/>
					
						<line style="fill:none;stroke:#69CDFF;stroke-width:1.0768;stroke-linecap:round;stroke-miterlimit:10;" x1="242.354" y1="254.689" x2="283.14" y2="254.689"/>
				</g>
				<g>
					
						<line style="fill:none;stroke:#69CDFF;stroke-width:1.0768;stroke-linecap:round;stroke-miterlimit:10;" x1="189.018" y1="261.694" x2="244.351" y2="261.694"/>
					
						<line style="fill:none;stroke:#69CDFF;stroke-width:1.0768;stroke-linecap:round;stroke-miterlimit:10;" x1="253.763" y1="261.694" x2="283.14" y2="261.694"/>
				</g>
				<g>
					
						<line style="fill:none;stroke:#69CDFF;stroke-width:1.0768;stroke-linecap:round;stroke-miterlimit:10;" x1="189.018" y1="268.699" x2="232.942" y2="268.699"/>
					
						<line style="fill:none;stroke:#69CDFF;stroke-width:1.0768;stroke-linecap:round;stroke-miterlimit:10;" x1="242.354" y1="268.699" x2="283.14" y2="268.699"/>
				</g>
				<g>
					
						<line style="fill:none;stroke:#69CDFF;stroke-width:1.0768;stroke-linecap:round;stroke-miterlimit:10;" x1="189.018" y1="275.704" x2="244.351" y2="275.704"/>
					
						<line style="fill:none;stroke:#69CDFF;stroke-width:1.0768;stroke-linecap:round;stroke-miterlimit:10;" x1="253.763" y1="275.704" x2="283.14" y2="275.704"/>
				</g>
				<g>
					
						<line style="fill:none;stroke:#69CDFF;stroke-width:1.0768;stroke-linecap:round;stroke-miterlimit:10;" x1="202.994" y1="292.048" x2="258.326" y2="292.048"/>
					
						<line style="fill:none;stroke:#69CDFF;stroke-width:1.0768;stroke-linecap:round;stroke-miterlimit:10;" x1="267.738" y1="292.048" x2="297.116" y2="292.048"/>
				</g>
				<g>
					
						<line style="fill:none;stroke:#69CDFF;stroke-width:1.0768;stroke-linecap:round;stroke-miterlimit:10;" x1="202.994" y1="299.053" x2="242.354" y2="299.053"/>
					
						<line style="fill:none;stroke:#69CDFF;stroke-width:1.0768;stroke-linecap:round;stroke-miterlimit:10;" x1="251.766" y1="299.053" x2="297.116" y2="299.053"/>
				</g>
				<g>
					
						<line style="fill:none;stroke:#69CDFF;stroke-width:1.0768;stroke-linecap:round;stroke-miterlimit:10;" x1="225.526" y1="315.138" x2="242.354" y2="315.138"/>
					
						<line style="fill:none;stroke:#69CDFF;stroke-width:1.0768;stroke-linecap:round;stroke-miterlimit:10;" x1="251.766" y1="315.138" x2="283.14" y2="315.138"/>
				</g>
				<g>
					
						<line style="fill:none;stroke:#69CDFF;stroke-width:1.0768;stroke-linecap:round;stroke-miterlimit:10;" x1="230.66" y1="321.624" x2="242.354" y2="321.624"/>
					
						<line style="fill:none;stroke:#69CDFF;stroke-width:1.0768;stroke-linecap:round;stroke-miterlimit:10;" x1="251.766" y1="321.624" x2="291.697" y2="321.624"/>
				</g>
				<g>
					
						<line style="fill:none;stroke:#54EAC3;stroke-width:1.0768;stroke-linecap:round;stroke-miterlimit:10;" x1="225.526" y1="328.11" x2="242.354" y2="328.11"/>
					
						<line style="fill:none;stroke:#54EAC3;stroke-width:1.0768;stroke-linecap:round;stroke-miterlimit:10;" x1="251.766" y1="328.11" x2="283.14" y2="328.11"/>
				</g>
				<g>
					
						<line style="fill:none;stroke:#69CDFF;stroke-width:1.0768;stroke-linecap:round;stroke-miterlimit:10;" x1="230.66" y1="334.596" x2="242.354" y2="334.596"/>
					
						<line style="fill:none;stroke:#69CDFF;stroke-width:1.0768;stroke-linecap:round;stroke-miterlimit:10;" x1="251.766" y1="334.596" x2="291.697" y2="334.596"/>
				</g>
			</g>
			<g>
				<path style="fill:#26508C;" d="M107.79,201.504c0,2.811-2.279,5.089-5.089,5.089s-5.089-2.279-5.089-5.089
					c0-2.811,2.278-5.089,5.089-5.089S107.79,198.693,107.79,201.504z"/>
				<path style="fill:#54EAC3;" d="M105.949,177.49c0,1.3-1.053,2.353-2.353,2.353c-1.3,0-2.353-1.054-2.353-2.353
					c0-1.299,1.053-2.353,2.353-2.353C104.895,175.137,105.949,176.19,105.949,177.49z"/>
				<path style="fill:#54EAC3;" d="M114.577,177.49c0,1.3-1.053,2.353-2.353,2.353c-1.299,0-2.353-1.054-2.353-2.353
					c0-1.299,1.054-2.353,2.353-2.353C113.523,175.137,114.577,176.19,114.577,177.49z"/>
				<path style="fill:#54EAC3;" d="M123.204,177.49c0,1.3-1.053,2.353-2.353,2.353c-1.3,0-2.353-1.054-2.353-2.353
					c0-1.299,1.054-2.353,2.353-2.353C122.151,175.137,123.204,176.19,123.204,177.49z"/>
				<path style="fill:#26508C;" d="M107.79,221.642c0,2.811-2.279,5.089-5.089,5.089s-5.089-2.279-5.089-5.089
					s2.278-5.089,5.089-5.089S107.79,218.831,107.79,221.642z"/>
				<circle style="fill:#26508C;" cx="102.701" cy="241.779" r="5.089"/>
				<path style="fill:#26508C;" d="M107.79,261.917c0,2.811-2.279,5.089-5.089,5.089s-5.089-2.279-5.089-5.089
					s2.278-5.089,5.089-5.089S107.79,259.106,107.79,261.917z"/>
			</g>
		</g>
		<path style="fill:none;stroke:#FFFFFF;stroke-width:1.129;stroke-miterlimit:10;" d="M430.134,203.744h25.42
			c6.852,0,12.407,5.555,12.407,12.407v125.496c0,6.852-5.555,12.407-12.407,12.407h-38.433"/>
		<g>
			<circle style="opacity:0.05;fill:#FFFFFF;" cx="379.766" cy="204.448" r="88.195"/>
			<circle style="opacity:0.15;fill:#FFFFFF;" cx="379.766" cy="204.448" r="81.789"/>
			
				<ellipse transform="matrix(0.2298 -0.9732 0.9732 0.2298 93.5348 527.0825)" style="opacity:0.5;fill:#FFFFFF;" cx="379.766" cy="204.448" rx="67.659" ry="67.659"/>
		</g>
		<g>
			<g>
				<path style="fill:#5492DD;" d="M426.811,297.459h-94.108c-2.249,0-4.072-1.823-4.072-4.072V109.621
					c0-2.249,1.823-4.072,4.072-4.072h94.108c2.249,0,4.072,1.823,4.072,4.072v183.767
					C430.883,295.636,429.06,297.459,426.811,297.459z"/>
				<path style="fill:#FFFFFF;" d="M424.069,294.099h-88.624c-2.145,0-3.883-1.739-3.883-3.883V112.793
					c0-2.145,1.739-3.883,3.883-3.883h88.624c2.145,0,3.883,1.739,3.883,3.883v177.423
					C427.953,292.36,426.214,294.099,424.069,294.099z"/>
				<path style="fill:#5492DD;" d="M394.794,111.227h-30.073c-1.108,0-2.005-0.898-2.005-2.005v-1.417h34.083v1.417
					C396.799,110.329,395.901,111.227,394.794,111.227z"/>
				
					<line style="fill:none;stroke:#FFFFFF;stroke-width:0.7263;stroke-linecap:round;stroke-miterlimit:10;" x1="372.704" y1="108.91" x2="386.811" y2="108.91"/>
			</g>
			
				<ellipse transform="matrix(0.2298 -0.9732 0.9732 0.2298 145.2895 486.1097)" style="fill:#9FDFFF;" cx="379.758" cy="151.264" rx="22.247" ry="22.247"/>
			<path style="fill:#FFFFFF;" d="M385.487,151.033h-2.331c2.305-1.22,3.876-3.64,3.876-6.43c0-4.018-3.257-7.274-7.274-7.274
				c-4.017,0-7.274,3.257-7.274,7.274c0,2.789,1.572,5.209,3.876,6.43h-2.331c-3.843,0-6.958,3.115-6.958,6.958v2.32
				c0,1.501,1.217,2.719,2.719,2.719h19.936c1.501,0,2.719-1.217,2.719-2.719v-2.32
				C392.444,154.148,389.329,151.033,385.487,151.033z"/>
			<path style="fill:#9FDFFF;" d="M390.314,283.161h-21.112c-1.177,0-2.131-0.954-2.131-2.131l0,0c0-1.177,0.954-2.131,2.131-2.131
				h21.112c1.177,0,2.131,0.954,2.131,2.131l0,0C392.444,282.207,391.491,283.161,390.314,283.161z"/>
			<g>
				<path style="fill:none;stroke:#9FDFFF;stroke-width:1.0396;stroke-miterlimit:10;" d="M404.744,238.599h-49.973
					c-4.512,0-8.17-3.658-8.17-8.17l0,0c0-4.512,3.658-8.17,8.17-8.17h49.973c4.512,0,8.17,3.658,8.17,8.17l0,0
					C412.914,234.941,409.256,238.599,404.744,238.599z"/>
				<g>
					<path style="fill:#E1E8EA;" d="M367.279,230.429c0,0.744-0.603,1.346-1.346,1.346c-0.744,0-1.346-0.603-1.346-1.346
						c0-0.744,0.603-1.346,1.346-1.346C366.677,229.083,367.279,229.686,367.279,230.429z"/>
					<path style="fill:#E1E8EA;" d="M374.196,230.429c0,0.744-0.603,1.346-1.346,1.346c-0.743,0-1.346-0.603-1.346-1.346
						c0-0.744,0.603-1.346,1.346-1.346C373.593,229.083,374.196,229.686,374.196,230.429z"/>
					<path style="fill:#E1E8EA;" d="M381.112,230.429c0,0.744-0.603,1.346-1.346,1.346c-0.744,0-1.346-0.603-1.346-1.346
						c0-0.744,0.603-1.346,1.346-1.346C380.51,229.083,381.112,229.686,381.112,230.429z"/>
					<path style="fill:#E1E8EA;" d="M388.029,230.429c0,0.744-0.603,1.346-1.346,1.346c-0.744,0-1.346-0.603-1.346-1.346
						c0-0.744,0.603-1.346,1.346-1.346C387.426,229.083,388.029,229.686,388.029,230.429z"/>
					<path style="fill:#E1E8EA;" d="M394.945,230.429c0,0.744-0.603,1.346-1.346,1.346c-0.744,0-1.346-0.603-1.346-1.346
						c0-0.744,0.603-1.346,1.346-1.346C394.343,229.083,394.945,229.686,394.945,230.429z"/>
				</g>
			</g>
			<g>
				<path style="fill:none;stroke:#9FDFFF;stroke-width:1.0396;stroke-miterlimit:10;" d="M404.744,213.464h-49.973
					c-4.512,0-8.17-3.658-8.17-8.17l0,0c0-4.512,3.658-8.17,8.17-8.17h49.973c4.512,0,8.17,3.658,8.17,8.17l0,0
					C412.914,209.807,409.256,213.464,404.744,213.464z"/>
				<g>
					<path style="fill:#E1E8EA;" d="M400.302,206.142H359.23c-0.467,0-0.847-0.379-0.847-0.847s0.379-0.847,0.847-0.847h41.071
						c0.467,0,0.847,0.379,0.847,0.847S400.769,206.142,400.302,206.142z"/>
				</g>
			</g>
		</g>
		<g>
			<linearGradient id="SVGID_1_" gradientUnits="userSpaceOnUse" x1="417.9768" y1="353.6975" x2="449.422" y2="353.6975">
				<stop  offset="0" style="stop-color:#FFFFFF"/>
				<stop  offset="0.1126" style="stop-color:#FFFFFF;stop-opacity:0.8874"/>
				<stop  offset="1" style="stop-color:#FFFFFF;stop-opacity:0"/>
			</linearGradient>
			<rect x="417.977" y="350.952" style="fill:url(#SVGID_1_);" width="31.445" height="5.49"/>
			
				<linearGradient id="SVGID_00000017513657229543566140000001876416385006351802_" gradientUnits="userSpaceOnUse" x1="417.9768" y1="350.9524" x2="437.8351" y2="350.9524">
				<stop  offset="0" style="stop-color:#FFFFFF"/>
				<stop  offset="0.1126" style="stop-color:#FFFFFF;stop-opacity:0.8874"/>
				<stop  offset="1" style="stop-color:#FFFFFF;stop-opacity:0"/>
			</linearGradient>
			
				<rect x="417.977" y="350.168" style="fill:url(#SVGID_00000017513657229543566140000001876416385006351802_);" width="19.858" height="1.569"/>
			
				<linearGradient id="SVGID_00000060727341974811816840000006561240835184931763_" gradientUnits="userSpaceOnUse" x1="417.9768" y1="356.4427" x2="437.8351" y2="356.4427">
				<stop  offset="0" style="stop-color:#FFFFFF"/>
				<stop  offset="0.1126" style="stop-color:#FFFFFF;stop-opacity:0.8874"/>
				<stop  offset="1" style="stop-color:#FFFFFF;stop-opacity:0"/>
			</linearGradient>
			
				<rect x="417.977" y="355.658" style="fill:url(#SVGID_00000060727341974811816840000006561240835184931763_);" width="19.858" height="1.569"/>
		</g>
		<g>
			
				<linearGradient id="SVGID_00000070798608433686235660000009611965086075750048_" gradientUnits="userSpaceOnUse" x1="430.8829" y1="203.7444" x2="462.3281" y2="203.7444">
				<stop  offset="0" style="stop-color:#FFFFFF"/>
				<stop  offset="0.1126" style="stop-color:#FFFFFF;stop-opacity:0.8874"/>
				<stop  offset="1" style="stop-color:#FFFFFF;stop-opacity:0"/>
			</linearGradient>
			
				<rect x="430.883" y="200.999" style="fill:url(#SVGID_00000070798608433686235660000009611965086075750048_);" width="31.445" height="5.49"/>
			
				<linearGradient id="SVGID_00000160178972815341797600000001677912370615399085_" gradientUnits="userSpaceOnUse" x1="430.8829" y1="200.9991" x2="450.7411" y2="200.9991">
				<stop  offset="0" style="stop-color:#FFFFFF"/>
				<stop  offset="0.1126" style="stop-color:#FFFFFF;stop-opacity:0.8874"/>
				<stop  offset="1" style="stop-color:#FFFFFF;stop-opacity:0"/>
			</linearGradient>
			
				<rect x="430.883" y="200.215" style="fill:url(#SVGID_00000160178972815341797600000001677912370615399085_);" width="19.858" height="1.569"/>
			
				<linearGradient id="SVGID_00000088121979630381220080000006476196443608125070_" gradientUnits="userSpaceOnUse" x1="430.8829" y1="206.4895" x2="450.7411" y2="206.4895">
				<stop  offset="0" style="stop-color:#FFFFFF"/>
				<stop  offset="0.1126" style="stop-color:#FFFFFF;stop-opacity:0.8874"/>
				<stop  offset="1" style="stop-color:#FFFFFF;stop-opacity:0"/>
			</linearGradient>
			
				<rect x="430.883" y="205.705" style="fill:url(#SVGID_00000088121979630381220080000006476196443608125070_);" width="19.858" height="1.569"/>
		</g>
		<g>
			<g>
				<path style="fill:none;stroke:#FFFFFF;stroke-width:0.5;stroke-miterlimit:10;" d="M76.963,329.968v25.967
					c0,1.146-0.929,2.075-2.075,2.075H57.658"/>
				<circle style="fill:none;stroke:#FFFFFF;stroke-width:0.5;stroke-miterlimit:10;" cx="76.963" cy="328.611" r="1.358"/>
				<circle style="fill:none;stroke:#FFFFFF;stroke-width:0.5;stroke-miterlimit:10;" cx="56.3" cy="358.01" r="1.358"/>
				<circle style="fill:none;stroke:#FFFFFF;stroke-width:0.5;stroke-miterlimit:10;" cx="62.487" cy="372.9" r="1.358"/>
				<circle style="fill:none;stroke:#FFFFFF;stroke-width:0.5;stroke-miterlimit:10;" cx="78.321" cy="361.484" r="1.358"/>
				<path style="fill:none;stroke:#FFFFFF;stroke-width:0.5;stroke-miterlimit:10;" d="M76.963,361.484H64.562
					c-1.146,0-2.075,0.929-2.075,2.075v8.157"/>
			</g>
			<g>
				<circle style="fill:none;stroke:#FFFFFF;stroke-width:0.5;stroke-miterlimit:10;" cx="105.38" cy="158.116" r="1.358"/>
				<path style="fill:none;stroke:#FFFFFF;stroke-width:0.5;stroke-miterlimit:10;" d="M166.913,158.116
					c0,0.75-0.608,1.358-1.358,1.358c-0.75,0-1.358-0.608-1.358-1.358c0-0.75,0.608-1.358,1.358-1.358
					C166.305,156.758,166.913,157.366,166.913,158.116z"/>
				
					<line style="fill:none;stroke:#FFFFFF;stroke-width:0.5;stroke-miterlimit:10;" x1="164.197" y1="158.116" x2="106.633" y2="158.116"/>
			</g>
			<g>
				<circle style="fill:none;stroke:#FFFFFF;stroke-width:0.5;stroke-miterlimit:10;" cx="352.824" cy="99.547" r="1.358"/>
				<path style="fill:none;stroke:#FFFFFF;stroke-width:0.5;stroke-miterlimit:10;" d="M361.868,99.547
					c0,0.75-0.608,1.358-1.358,1.358c-0.75,0-1.358-0.608-1.358-1.358c0-0.75,0.608-1.358,1.358-1.358
					C361.261,98.189,361.868,98.797,361.868,99.547z"/>
				<path style="fill:none;stroke:#FFFFFF;stroke-width:0.5;stroke-miterlimit:10;" d="M323.424,134.158v-29.811
					c0-2.651,2.149-4.8,4.8-4.8h23.242"/>
				
					<line style="fill:none;stroke:#FFFFFF;stroke-width:0.5;stroke-miterlimit:10;" x1="361.868" y1="99.547" x2="382.766" y2="99.547"/>
			</g>
			<g>
				<circle style="fill:none;stroke:#FFFFFF;stroke-width:0.5;stroke-miterlimit:10;" cx="327.275" cy="389.653" r="1.358"/>
				<circle style="fill:none;stroke:#FFFFFF;stroke-width:0.5;stroke-miterlimit:10;" cx="414.94" cy="389.653" r="1.358"/>
				
					<line style="fill:none;stroke:#FFFFFF;stroke-width:0.5;stroke-miterlimit:10;" x1="328.632" y1="389.653" x2="413.582" y2="389.653"/>
			</g>
			<g>
				<path style="fill:none;stroke:#FFFFFF;stroke-width:0.5;stroke-miterlimit:10;" d="M438.435,344.4
					c0,0.75-0.608,1.358-1.358,1.358c-0.75,0-1.358-0.608-1.358-1.358s0.608-1.358,1.358-1.358
					C437.827,343.042,438.435,343.65,438.435,344.4z"/>
				<circle style="fill:none;stroke:#FFFFFF;stroke-width:0.5;stroke-miterlimit:10;" cx="437.835" cy="287.305" r="1.358"/>
				<circle style="fill:none;stroke:#FFFFFF;stroke-width:0.5;stroke-miterlimit:10;" cx="423.814" cy="331.137" r="1.358"/>
				<path style="fill:none;stroke:#FFFFFF;stroke-width:0.5;stroke-miterlimit:10;" d="M423.814,329.779v-14.747
					c0-0.645,0.523-1.168,1.168-1.168h11.684c0.645,0,1.169-0.523,1.169-1.168v-24.031"/>
				<path style="fill:none;stroke:#FFFFFF;stroke-width:0.5;stroke-miterlimit:10;" d="M423.814,320.116h12.095
					c0.645,0,1.168,0.523,1.168,1.168v21.758"/>
			</g>
		</g>
		<g>
			<g>
				
					<ellipse transform="matrix(0.9239 -0.3827 0.3827 0.9239 -108.0936 54.6834)" style="fill:#FFFFFF;" cx="83.409" cy="299.053" rx="17.723" ry="17.723"/>
				<path style="fill:none;stroke:#FFFFFF;stroke-width:0.6395;stroke-linecap:round;stroke-miterlimit:10;" d="M98.684,285.855
					c3.06,3.539,4.911,8.152,4.911,13.198c0,11.149-9.038,20.186-20.187,20.186c-2.721,0-5.317-0.538-7.686-1.515"/>
				<path style="fill:none;stroke:#FFFFFF;stroke-width:0.6395;stroke-linecap:round;stroke-miterlimit:10;" d="M69.749,313.915
					c-4.012-3.689-6.526-8.982-6.526-14.862c0-11.149,9.038-20.187,20.187-20.187"/>
				<g>
					<path style="fill:#365C9E;" d="M85.732,290.797h1.457l-5.529,15.785h-1.459L85.732,290.797z"/>
					<path style="fill:#365C9E;" d="M95.202,298.321v1.441l-7.507,2.966v-1.391l5.965-2.296l-5.965-2.296v-1.391L95.202,298.321z"/>
					<path style="fill:#365C9E;" d="M71.616,299.762v-1.441l7.507-2.966v1.391l-5.965,2.296l5.965,2.296v1.391L71.616,299.762z"/>
				</g>
			</g>
			<g>
				
					<ellipse transform="matrix(0.7071 -0.7071 0.7071 0.7071 -41.2688 129.2755)" style="fill:#FFFFFF;" cx="135.415" cy="114.454" rx="28.782" ry="28.782"/>
				<path style="fill:none;stroke:#FFFFFF;stroke-width:1.0385;stroke-linecap:round;stroke-miterlimit:10;" d="M160.221,93.021
					c4.97,5.747,7.976,13.239,7.976,21.432c0,18.105-14.677,32.782-32.782,32.782c-4.419,0-8.634-0.874-12.482-2.46"/>
				<path style="fill:none;stroke:#FFFFFF;stroke-width:1.0385;stroke-linecap:round;stroke-miterlimit:10;" d="M113.231,138.59
					c-6.515-5.991-10.598-14.587-10.598-24.136c0-18.105,14.677-32.782,32.782-32.782"/>
				<g>
					<path style="fill:#F29141;" d="M123.296,119.842l1.742-2.095c0.895,1.224,1.978,1.883,3.272,1.883
						c1.696,0,2.566-1.012,2.566-3.037v-8.521h-5.861v-2.566h8.92v10.922c0,3.884-1.93,5.791-5.555,5.791
						C126.309,122.22,124.426,121.372,123.296,119.842z"/>
					<path style="fill:#F29141;" d="M136.509,120.737l1.129-2.236c1.108,0.729,2.802,1.248,4.38,1.248
						c1.859,0,2.635-0.518,2.635-1.39c0-2.401-7.768-0.141-7.768-5.155c0-2.378,2.143-3.931,5.534-3.931
						c1.669,0,3.576,0.401,4.707,1.083l-1.131,2.237c-1.2-0.706-2.4-0.942-3.601-0.942c-1.788,0-2.635,0.589-2.635,1.413
						c0,2.542,7.768,0.283,7.768,5.202c0,2.354-2.166,3.884-5.698,3.884C139.733,122.149,137.638,121.537,136.509,120.737z"/>
				</g>
			</g>
			<g>
				<circle style="fill:#FFFFFF;" cx="216.684" cy="153.303" r="32.518"/>
				<path style="fill:none;stroke:#FFFFFF;stroke-width:1.1732;stroke-linecap:round;stroke-miterlimit:10;" d="M244.711,129.089
					c5.615,6.493,9.011,14.957,9.011,24.214c0,20.455-16.582,37.037-37.037,37.037c-4.993,0-9.755-0.988-14.102-2.779"/>
				<path style="fill:none;stroke:#FFFFFF;stroke-width:1.1732;stroke-linecap:round;stroke-miterlimit:10;" d="M191.621,180.572
					c-7.361-6.769-11.974-16.48-11.974-27.269c0-20.455,16.582-37.037,37.037-37.037"/>
				<g>
					<path style="fill:#9779B7;" d="M209.035,151.661c0,2.505-1.854,4.049-4.846,4.049h-2.569v3.285h-2.115v-11.384h4.684
						C207.181,147.612,209.035,149.14,209.035,151.661z M206.904,151.661c0-1.431-0.959-2.26-2.813-2.26h-2.472v4.521h2.472
						C205.946,153.922,206.904,153.092,206.904,151.661z"/>
					<path style="fill:#9779B7;" d="M221.27,147.612v11.384h-2.113v-4.879h-5.887v4.879h-2.115v-11.384h2.115v4.7h5.887v-4.7H221.27
						z"/>
					<path style="fill:#9779B7;" d="M233.864,151.661c0,2.505-1.854,4.049-4.846,4.049h-2.569v3.285h-2.115v-11.384h4.683
						C232.01,147.612,233.864,149.14,233.864,151.661z M231.733,151.661c0-1.431-0.959-2.26-2.813-2.26h-2.472v4.521h2.472
						C230.775,153.922,231.733,153.092,231.733,151.661z"/>
				</g>
			</g>
			<g>
				<circle style="fill:#FFFFFF;" cx="59.4" cy="240.679" r="33.456"/>
				<path style="fill:none;stroke:#FFFFFF;stroke-width:1.2071;stroke-linecap:round;stroke-miterlimit:10;" d="M88.235,215.766
					c5.777,6.68,9.271,15.389,9.271,24.913c0,21.045-17.061,38.106-38.106,38.106c-5.137,0-10.036-1.016-14.508-2.859"/>
				<path style="fill:none;stroke:#FFFFFF;stroke-width:1.2071;stroke-linecap:round;stroke-miterlimit:10;" d="M33.613,268.735
					c-7.573-6.964-12.319-16.956-12.319-28.056c0-21.045,17.061-38.106,38.106-38.106"/>
				<g>
					<path style="fill:#FC974C;" d="M47.389,236.12v10.392h-1.93v-4.454h-5.374v4.454h-1.93V236.12h1.93v4.29h5.374v-4.29H47.389z"
						/>
					<path style="fill:#FC974C;" d="M52.283,237.753h-3.444v-1.633h8.819v1.633h-3.445v8.759h-1.93V237.753z"/>
					<path style="fill:#FC974C;" d="M68.655,246.512l-0.015-6.889l-3.414,5.701h-0.861l-3.414-5.612v6.8h-1.841V236.12h1.588
						l4.127,6.888l4.054-6.888h1.588l0.015,10.392H68.655z"/>
					<path style="fill:#FC974C;" d="M73.282,236.12h1.93v8.759h5.433v1.633h-7.363V236.12z"/>
				</g>
			</g>
			<g>
				
					<ellipse transform="matrix(0.2298 -0.9732 0.9732 0.2298 -104.5914 170.3718)" style="fill:#FFFFFF;" cx="55.341" cy="151.264" rx="20.605" ry="20.605"/>
				<path style="fill:none;stroke:#FFFFFF;stroke-width:0.7434;stroke-linecap:round;stroke-miterlimit:10;" d="M73.1,135.921
					c3.558,4.114,5.71,9.477,5.71,15.343c0,12.961-10.507,23.468-23.468,23.468c-3.164,0-6.181-0.626-8.935-1.761"/>
				<path style="fill:none;stroke:#FFFFFF;stroke-width:0.7434;stroke-linecap:round;stroke-miterlimit:10;" d="M39.46,168.543
					c-4.664-4.289-7.587-10.443-7.587-17.279c0-12.961,10.507-23.468,23.468-23.468"/>
				<g>
					<g>
						<path style="fill:#4F88DB;" d="M43.478,151.166c0-2.944,2.254-5.072,5.284-5.072c1.606,0,2.986,0.578,3.903,1.648
							l-1.184,1.113c-0.718-0.775-1.606-1.155-2.634-1.155c-2.043,0-3.523,1.437-3.523,3.466c0,2.029,1.48,3.466,3.523,3.466
							c1.028,0,1.916-0.38,2.634-1.169l1.184,1.127c-0.917,1.071-2.297,1.649-3.916,1.649
							C45.732,156.238,43.478,154.111,43.478,151.166z"/>
					</g>
					<g>
						<path style="fill:#4F88DB;" d="M60.188,151.763h-2.115v2.091h-1.278v-2.091H54.68v-1.195h2.115v-2.09h1.278v2.09h2.115
							V151.763z"/>
					</g>
					<g>
						<path style="fill:#4F88DB;" d="M67.204,151.763H65.09v2.091h-1.278v-2.091h-2.115v-1.195h2.115v-2.09h1.278v2.09h2.115
							V151.763z"/>
					</g>
				</g>
			</g>
			<g>
				<circle style="fill:#FFFFFF;" cx="286.25" cy="120.611" r="22.037"/>
				<path style="fill:none;stroke:#FFFFFF;stroke-width:0.7951;stroke-linecap:round;stroke-miterlimit:10;" d="M305.243,104.202
					c3.805,4.4,6.107,10.136,6.107,16.409c0,13.862-11.237,25.099-25.099,25.099c-3.384,0-6.611-0.669-9.556-1.883"/>
				<path style="fill:none;stroke:#FFFFFF;stroke-width:0.7951;stroke-linecap:round;stroke-miterlimit:10;" d="M269.265,139.09
					c-4.988-4.587-8.114-11.168-8.114-18.479c0-13.862,11.237-25.099,25.099-25.099"/>
				<g>
					<path style="fill:#4F88DB;" d="M273.027,120.506c0-2.905,2.224-5.003,5.213-5.003c1.584,0,2.946,0.57,3.85,1.626l-1.168,1.098
						c-0.708-0.765-1.584-1.14-2.599-1.14c-2.016,0-3.475,1.417-3.475,3.419s1.46,3.419,3.475,3.419c1.014,0,1.89-0.375,2.599-1.153
						l1.168,1.112c-0.904,1.056-2.266,1.626-3.864,1.626C275.251,125.51,273.027,123.411,273.027,120.506z"/>
					<path style="fill:#4F88DB;" d="M282.957,124.342l0.626-1.403c0.778,0.625,2.014,1.07,3.21,1.07
						c1.515,0,2.155-0.542,2.155-1.265c0-2.099-5.782-0.723-5.782-4.337c0-1.57,1.251-2.905,3.919-2.905
						c1.168,0,2.391,0.306,3.239,0.861l-0.57,1.404c-0.875-0.514-1.835-0.765-2.682-0.765c-1.501,0-2.113,0.584-2.113,1.321
						c0,2.071,5.768,0.723,5.768,4.295c0,1.557-1.265,2.891-3.934,2.891C285.278,125.51,283.763,125.037,282.957,124.342z"/>
					<path style="fill:#4F88DB;" d="M291.704,124.342l0.625-1.403c0.779,0.625,2.016,1.07,3.211,1.07
						c1.515,0,2.155-0.542,2.155-1.265c0-2.099-5.782-0.723-5.782-4.337c0-1.57,1.251-2.905,3.919-2.905
						c1.168,0,2.391,0.306,3.239,0.861l-0.57,1.404c-0.875-0.514-1.835-0.765-2.682-0.765c-1.501,0-2.113,0.584-2.113,1.321
						c0,2.071,5.768,0.723,5.768,4.295c0,1.557-1.265,2.891-3.934,2.891C294.025,125.51,292.51,125.037,291.704,124.342z"/>
				</g>
			</g>
			<g>
				<path style="fill:none;stroke:#FFFFFF;stroke-width:0.5;stroke-miterlimit:10;" d="M246.863,88.532l-3.558,0.182l0.182-3.558
					c-1.364-0.921-2.922-1.574-4.597-1.898l-2.383,2.64l-2.383-2.64c-1.675,0.324-3.233,0.977-4.597,1.898l0.182,3.558l-3.557-0.182
					c-0.921,1.364-1.574,2.922-1.898,4.597l2.64,2.383l-2.64,2.383c0.324,1.675,0.977,3.233,1.898,4.597l3.557-0.182l-0.182,3.558
					c1.364,0.921,2.922,1.574,4.597,1.898l2.383-2.64l2.383,2.64c1.675-0.324,3.233-0.977,4.597-1.898l-0.182-3.558l3.558,0.182
					c0.921-1.364,1.574-2.922,1.898-4.597l-2.64-2.383l2.64-2.383C248.437,91.453,247.784,89.896,246.863,88.532z"/>
				<path style="fill:none;stroke:#FFFFFF;stroke-width:0.5;stroke-miterlimit:10;" d="M241.97,95.512
					c0,3.017-2.446,5.463-5.463,5.463c-3.017,0-5.463-2.446-5.463-5.463c0-3.017,2.446-5.463,5.463-5.463
					C239.524,90.049,241.97,92.495,241.97,95.512z"/>
			</g>
			<g>
				<path style="fill:none;stroke:#FFFFFF;stroke-width:0.5;stroke-miterlimit:10;" d="M372.224,325.515l-3.558,0.182l0.182-3.557
					c-1.364-0.921-2.922-1.574-4.597-1.898l-2.383,2.64l-2.383-2.64c-1.675,0.324-3.233,0.977-4.597,1.898l0.182,3.557l-3.558-0.182
					c-0.921,1.364-1.574,2.922-1.898,4.597l2.64,2.383l-2.64,2.383c0.324,1.675,0.977,3.233,1.898,4.597l3.558-0.182l-0.182,3.558
					c1.364,0.921,2.922,1.574,4.597,1.898l2.383-2.64l2.383,2.64c1.675-0.324,3.233-0.977,4.597-1.898l-0.182-3.558l3.558,0.182
					c0.921-1.364,1.574-2.922,1.898-4.597l-2.64-2.383l2.64-2.383C373.798,328.436,373.145,326.879,372.224,325.515z"/>
				<path style="fill:none;stroke:#FFFFFF;stroke-width:0.5;stroke-miterlimit:10;" d="M367.332,332.495
					c0,3.017-2.446,5.463-5.463,5.463c-3.017,0-5.463-2.446-5.463-5.463c0-3.017,2.446-5.463,5.463-5.463
					C364.886,327.032,367.332,329.478,367.332,332.495z"/>
			</g>
			<path style="fill:#FFFFFF;" d="M54.942,294.737c-0.225-1.162-0.678-2.243-1.317-3.189l-2.468,0.126l0.126-2.468
				c-0.946-0.639-2.027-1.092-3.189-1.317l-1.653,1.831l-1.653-1.831c-1.162,0.225-2.243,0.678-3.189,1.317l0.126,2.468
				l-2.468-0.126c-0.639,0.946-1.092,2.027-1.317,3.189l1.831,1.654l-1.831,1.653c0.225,1.162,0.678,2.243,1.317,3.189l2.468-0.126
				l-0.126,2.468c0.946,0.639,2.027,1.092,3.189,1.317l1.653-1.831l1.653,1.831c1.162-0.225,2.243-0.678,3.189-1.317l-0.126-2.468
				l2.468,0.126c0.639-0.946,1.092-2.027,1.317-3.189l-1.831-1.653L54.942,294.737z M46.441,300.181c-2.093,0-3.79-1.697-3.79-3.79
				c0-2.093,1.697-3.79,3.79-3.79s3.79,1.697,3.79,3.79C50.231,298.484,48.534,300.181,46.441,300.181z"/>
			<path style="fill:#FFFFFF;" d="M413.802,88.395c-0.225-1.162-0.678-2.243-1.317-3.189l-2.468,0.126l0.126-2.468
				c-0.946-0.639-2.027-1.092-3.189-1.317l-1.654,1.831l-1.654-1.831c-1.162,0.225-2.243,0.678-3.189,1.317l0.126,2.468
				l-2.468-0.126c-0.639,0.946-1.092,2.027-1.317,3.189l1.831,1.653l-1.831,1.654c0.225,1.162,0.678,2.243,1.317,3.189l2.468-0.126
				l-0.126,2.468c0.946,0.639,2.027,1.092,3.189,1.317l1.654-1.831l1.654,1.831c1.162-0.225,2.243-0.678,3.189-1.317l-0.126-2.468
				l2.468,0.126c0.639-0.946,1.092-2.027,1.317-3.189l-1.831-1.654L413.802,88.395z M405.301,93.839c-2.093,0-3.79-1.697-3.79-3.79
				c0-2.093,1.697-3.79,3.79-3.79s3.79,1.697,3.79,3.79C409.091,92.142,407.394,93.839,405.301,93.839z"/>
		</g>
	</g>
</g>
</svg>
